# xmcd
#
# Track frame offsets:
#	150
#	22685
#	44319
#	66576
#	86885
#	106530
#	122590
#	137882
#	151901
#	164262
#	176049
#	194936
#	210735
#	230904
#	244278
#	263673
#	286842
#	305783
#	322931
#
# Disc length: 4508 seconds
#
# Revision: 1
# Processed by: cddbd v1.5.2PL0 Copyright (c) Steve Scherf et al.
# Submitted via: audiograbber 1.83.01
#
DISCID=16119a13
DTITLE=Karen Perry - Was wir getan haben
DYEAR=1900
DGENRE=
TTITLE0=601
TTITLE1=602
TTITLE2=603
TTITLE3=604
TTITLE4=605
TTITLE5=606
TTITLE6=607
TTITLE7=608
TTITLE8=609
TTITLE9=610
TTITLE10=611
TTITLE11=612
TTITLE12=613
TTITLE13=614
TTITLE14=615
TTITLE15=616
TTITLE16=617
TTITLE17=618
TTITLE18=619
EXTD=
EXTT0=
EXTT1=
EXTT2=
EXTT3=
EXTT4=
EXTT5=
EXTT6=
EXTT7=
EXTT8=
EXTT9=
EXTT10=
EXTT11=
EXTT12=
EXTT13=
EXTT14=
EXTT15=
EXTT16=
EXTT17=
EXTT18=
PLAYORDER=
